<svg width="81" height="81" viewBox="0 0 81 81" fill="none" xmlns="http://www.w3.org/2000/svg">
<rect x="0.984375" y="0.203125" width="80" height="80" rx="40" fill="#DFD0A9"/>
<path d="M16.1523 44.2031V35.8031H20.2563C21.3123 35.8031 22.1043 36.0031 22.6323 36.4031C23.1683 36.8031 23.4363 37.3311 23.4363 37.9871C23.4363 38.4271 23.3283 38.8111 23.1123 39.1391C22.8963 39.4591 22.6003 39.7071 22.2243 39.8831C21.8483 40.0591 21.4163 40.1471 20.9283 40.1471L21.1562 39.6551C21.6843 39.6551 22.1523 39.7431 22.5603 39.9191C22.9683 40.0871 23.2843 40.3391 23.5083 40.6751C23.7403 41.0111 23.8563 41.4231 23.8563 41.9111C23.8563 42.6311 23.5723 43.1951 23.0043 43.6031C22.4363 44.0031 21.6003 44.2031 20.4963 44.2031H16.1523ZM18.0843 42.7391H20.3523C20.8563 42.7391 21.2363 42.6591 21.4922 42.4991C21.7563 42.3311 21.8883 42.0671 21.8883 41.7071C21.8883 41.3551 21.7563 41.0951 21.4922 40.9271C21.2363 40.7511 20.8563 40.6631 20.3523 40.6631H17.9403V39.2471H20.0163C20.4883 39.2471 20.8483 39.1671 21.0963 39.0071C21.3523 38.8391 21.4803 38.5871 21.4803 38.2511C21.4803 37.9231 21.3523 37.6791 21.0963 37.5191C20.8483 37.3511 20.4883 37.2671 20.0163 37.2671H18.0843V42.7391ZM27.116 39.1871H31.16V40.6991H27.116V39.1871ZM27.26 42.6431H31.832V44.2031H25.328V35.8031H31.676V37.3631H27.26V42.6431ZM35.1788 39.5831H39.2108V41.1431H35.1788V39.5831ZM35.3228 44.2031H33.3788V35.8031H39.7268V37.3631H35.3228V44.2031ZM45.0408 44.3471C44.3768 44.3471 43.7608 44.2391 43.1928 44.0231C42.6328 43.8071 42.1448 43.5031 41.7288 43.1111C41.3208 42.7191 41.0008 42.2591 40.7688 41.7311C40.5448 41.2031 40.4328 40.6271 40.4328 40.0031C40.4328 39.3791 40.5448 38.8031 40.7688 38.2751C41.0008 37.7471 41.3248 37.2871 41.7408 36.8951C42.1568 36.5031 42.6448 36.1991 43.2048 35.9831C43.7648 35.7671 44.3728 35.6591 45.0288 35.6591C45.6928 35.6591 46.3008 35.7671 46.8528 35.9831C47.4128 36.1991 47.8968 36.5031 48.3048 36.8951C48.7208 37.2871 49.0448 37.7471 49.2768 38.2751C49.5088 38.7951 49.6248 39.3711 49.6248 40.0031C49.6248 40.6271 49.5088 41.2071 49.2768 41.7431C49.0448 42.2711 48.7208 42.7311 48.3048 43.1231C47.8968 43.5071 47.4128 43.8071 46.8528 44.0231C46.3008 44.2391 45.6968 44.3471 45.0408 44.3471ZM45.0288 42.6911C45.4048 42.6911 45.7488 42.6271 46.0608 42.4991C46.3808 42.3711 46.6608 42.1871 46.9008 41.9471C47.1408 41.7071 47.3248 41.4231 47.4528 41.0951C47.5888 40.7671 47.6568 40.4031 47.6568 40.0031C47.6568 39.6031 47.5888 39.2391 47.4528 38.9111C47.3248 38.5831 47.1408 38.2991 46.9008 38.0591C46.6688 37.8191 46.3928 37.6351 46.0728 37.5071C45.7528 37.3791 45.4048 37.3151 45.0288 37.3151C44.6528 37.3151 44.3048 37.3791 43.9848 37.5071C43.6728 37.6351 43.3968 37.8191 43.1568 38.0591C42.9168 38.2991 42.7288 38.5831 42.5928 38.9111C42.4648 39.2391 42.4008 39.6031 42.4008 40.0031C42.4008 40.3951 42.4648 40.7591 42.5928 41.0951C42.7288 41.4231 42.9128 41.7071 43.1448 41.9471C43.3848 42.1871 43.6648 42.3711 43.9848 42.4991C44.3048 42.6271 44.6528 42.6911 45.0288 42.6911ZM51.0858 44.2031V35.8031H54.7218C55.4738 35.8031 56.1218 35.9271 56.6658 36.1751C57.2098 36.4151 57.6298 36.7631 57.9258 37.2191C58.2218 37.6751 58.3698 38.2191 58.3698 38.8511C58.3698 39.4751 58.2218 40.0151 57.9258 40.4711C57.6298 40.9191 57.2098 41.2631 56.6658 41.5031C56.1218 41.7431 55.4738 41.8631 54.7218 41.8631H52.1658L53.0298 41.0111V44.2031H51.0858ZM56.4258 44.2031L54.3258 41.1551H56.4018L58.5258 44.2031H56.4258ZM53.0298 41.2271L52.1658 40.3151H54.6138C55.2138 40.3151 55.6618 40.1871 55.9578 39.9311C56.2538 39.6671 56.4018 39.3071 56.4018 38.8511C56.4018 38.3871 56.2538 38.0271 55.9578 37.7711C55.6618 37.5151 55.2138 37.3871 54.6138 37.3871H52.1658L53.0298 36.4631V41.2271ZM61.6981 39.1871H65.7421V40.6991H61.6981V39.1871ZM61.8421 42.6431H66.4141V44.2031H59.9101V35.8031H66.2581V37.3631H61.8421V42.6431Z" fill="white"/>
</svg>
