<svg width="81" height="81" viewBox="0 0 81 81" fill="none" xmlns="http://www.w3.org/2000/svg">
<rect x="0.984375" y="0.203125" width="80" height="80" rx="40" fill="#9FBDD9"/>
<path d="M20.5014 44.2031L24.2454 35.8031H26.1654L29.9214 44.2031H27.8814L24.8094 36.7871H25.5774L22.4934 44.2031H20.5014ZM22.3734 42.4031L22.8894 40.9271H27.2094L27.7374 42.4031H22.3734ZM32.5929 39.5831H36.6249V41.1431H32.5929V39.5831ZM32.7369 44.2031H30.7929V35.8031H37.1409V37.3631H32.7369V44.2031ZM40.2555 44.2031V37.3871H37.5675V35.8031H44.8875V37.3871H42.1995V44.2031H40.2555ZM47.7215 39.1871H51.7655V40.6991H47.7215V39.1871ZM47.8655 42.6431H52.4375V44.2031H45.9335V35.8031H52.2815V37.3631H47.8655V42.6431ZM53.9843 44.2031V35.8031H57.6203C58.3723 35.8031 59.0203 35.9271 59.5643 36.1751C60.1083 36.4151 60.5283 36.7631 60.8243 37.2191C61.1203 37.6751 61.2683 38.2191 61.2683 38.8511C61.2683 39.4751 61.1203 40.0151 60.8243 40.4711C60.5283 40.9191 60.1083 41.2631 59.5643 41.5031C59.0203 41.7431 58.3723 41.8631 57.6203 41.8631H55.0643L55.9283 41.0111V44.2031H53.9843ZM59.3243 44.2031L57.2243 41.1551H59.3003L61.4243 44.2031H59.3243ZM55.9283 41.2271L55.0643 40.3151H57.5123C58.1123 40.3151 58.5603 40.1871 58.8563 39.9311C59.1523 39.6671 59.3003 39.3071 59.3003 38.8511C59.3003 38.3871 59.1523 38.0271 58.8563 37.7711C58.5603 37.5151 58.1123 37.3871 57.5123 37.3871H55.0643L55.9283 36.4631V41.2271Z" fill="white"/>
</svg>
